<?xml version="1.0" encoding="UTF-8"?>
<svg version="1.1" xmlns="http://www.w3.org/2000/svg" width="50" height="50">
<path d="M0 0 C4.01960072 0.33752372 5.67413004 2.28086746 8.25 5.25 C8.90226562 6.07757813 9.55453125 6.90515625 10.2265625 7.7578125 C11.98248513 9.83167996 13.26599856 10.87351097 15.625 12.125 C18.125 14 18.125 14 18.6875 17.625 C18.4090625 19.295625 18.4090625 19.295625 18.125 21 C14.52181767 23.40212156 12.84106185 23.25748287 8.55859375 23.265625 C7.26888672 23.26820312 5.97917969 23.27078125 4.65039062 23.2734375 C3.97983643 23.26924805 3.30928223 23.26505859 2.6184082 23.26074219 C0.56626945 23.2500197 -1.48499748 23.26065635 -3.53710938 23.2734375 C-4.82552734 23.27085938 -6.11394531 23.26828125 -7.44140625 23.265625 C-9.21946655 23.26224121 -9.21946655 23.26224121 -11.03344727 23.25878906 C-13.875 23 -13.875 23 -15.875 21 C-16.27822435 17.92541431 -16.52680761 15.95028708 -15.875 13 C-13.25 10.4375 -13.25 10.4375 -11.578125 9.296875 C-9.62153088 7.8069914 -8.44372829 6.17064325 -7 4.1875 C-4.83582434 1.63444902 -3.36951838 0.40144653 0 0 Z " fill="#000000" transform="translate(23.875,26)"/>
<path d="M0 0 C2.96733515 2.97420398 3.43177163 5.3073461 3.4375 9.4375 C3.32172746 13.04574413 3.05047215 14.89703681 1.4375 18.1875 C-1 20 -1 20 -4.5625 20.625 C-8 20 -8 20 -9.9375 18.1875 C-11.52287608 13.43137176 -11.67147341 8.95974677 -11 4 C-8.30810235 -0.63006396 -5.09269281 -0.74075532 0 0 Z " fill="#000000" transform="translate(37,2)"/>
<path d="M0 0 C3.5 0.4375 3.5 0.4375 5.1953125 1.59375 C7.05038109 4.21528405 6.89860087 6.19281668 6.875 9.375 C6.88273437 10.41527344 6.89046875 11.45554687 6.8984375 12.52734375 C6.45568175 15.76119705 5.79525319 17.1476474 3.5 19.4375 C0.5625 20 0.5625 20 -2.5 19.4375 C-5.29168197 17.23354055 -6.33968239 15.55251799 -6.84765625 12.01953125 C-7.07140226 5.43361617 -7.07140226 5.43361617 -5.19140625 2.15625 C-3.5 0.4375 -3.5 0.4375 0 0 Z " fill="#000000" transform="translate(17.5,1.5625)"/>
<path d="M0 0 C2.75 0.5625 2.75 0.5625 4.75 2.5625 C5.4434272 6.62087391 5.54981136 10.74150093 3.875 14.5546875 C2.6875 16.1875 2.6875 16.1875 -0.25 18.5625 C-3.9375 19.0625 -3.9375 19.0625 -7.25 18.5625 C-9.58626505 16.22623495 -9.61789798 15.57296981 -9.75 12.375 C-9.6440201 7.69674446 -8.21434711 5.12700937 -4.9765625 1.8125 C-3.25 0.5625 -3.25 0.5625 0 0 Z " fill="#000000" transform="translate(45.25,17.4375)"/>
<path d="M0 0 C3.27153107 0.55685635 4.00667653 0.89366978 5.9375 3.5 C6.3359375 6.05859375 6.3359375 6.05859375 6.3125 8.9375 C6.32023438 9.88496094 6.32796875 10.83242188 6.3359375 11.80859375 C5.87599928 14.9154313 5.15646416 16.2963743 2.9375 18.5 C-0.71192331 19.02134619 -2.96872489 19.31151056 -6 17.0625 C-7.60966406 13.18036903 -7.7175201 9.63619433 -7.0625 5.5 C-5.0799769 1.76370646 -4.19845353 0.6854618 0 0 Z " fill="#000000" transform="translate(7.0625,17.5)"/>
</svg>
