<?xml version="1.0" encoding="UTF-8" standalone="no"?>
<!DOCTYPE svg PUBLIC "-//W3C//DTD SVG 1.1//EN" "http://www.w3.org/Graphics/SVG/1.1/DTD/svg11.dtd">
<svg width="100%" height="100%" viewBox="0 0 508 237" version="1.1" xmlns="http://www.w3.org/2000/svg" xmlns:xlink="http://www.w3.org/1999/xlink" xml:space="preserve" xmlns:serif="http://www.serif.com/" style="fill-rule:evenodd;clip-rule:evenodd;stroke-linejoin:round;stroke-miterlimit:2;"><g id="Ebene-1" serif:id="Ebene 1"><path id="path24" d="M239.106,226.68c-24.955,-23.347 -36.551,-38.427 -41.609,-54.112c-0.705,-2.186 -1.461,-4.394 -1.68,-4.909c-0.218,-0.514 -0.669,-2.723 -1,-4.908c-0.528,-3.484 -0.726,-3.992 -1.608,-4.119c-0.739,-0.107 -1.217,0.26 -1.796,1.38c-2.045,3.955 -18.187,18.223 -30.865,27.281c-0.72,0.514 -2.215,1.619 -3.323,2.454c-1.108,0.836 -2.122,1.52 -2.254,1.52c-0.131,-0 0.168,-0.799 0.666,-1.775c0.498,-0.976 1.056,-2.607 1.24,-3.623c0.183,-1.016 0.493,-2.058 0.687,-2.316c0.195,-0.257 0.507,-1.624 0.693,-3.038c0.186,-1.414 0.496,-2.782 0.69,-3.039c0.193,-0.257 0.487,-2.255 0.653,-4.441c0.741,-9.762 1.254,-18.258 1.666,-27.58c0.244,-5.528 0.672,-11.524 0.951,-13.323c0.278,-1.8 0.801,-5.166 1.161,-7.48c1.034,-6.649 2.074,-10.497 3.797,-14.059c0.88,-1.819 1.6,-3.458 1.6,-3.643c0,-0.184 0.214,-0.589 0.476,-0.9c0.261,-0.31 1.53,-1.984 2.82,-3.72c1.29,-1.735 2.548,-3.155 2.797,-3.155c0.248,-0 0.452,-0.526 0.452,-1.169c-0,-1.839 -1.945,-1.497 -6.632,1.168c-4.542,2.583 -8.644,5.548 -13.92,10.064c-3.14,2.687 -3.266,2.754 -2.893,1.537c1.102,-3.598 2.183,-6.723 2.396,-6.925c0.135,-0.129 1.075,-1.917 2.089,-3.974c1.69,-3.43 3.848,-7.141 4.486,-7.713c0.144,-0.129 0.763,-0.97 1.377,-1.87c2.612,-3.827 8.116,-9.666 13.815,-14.653c2.304,-2.017 4.19,-4.016 4.19,-4.441c0,-1.629 -1.923,-1.24 -10.284,2.079c-0.514,0.204 -0.094,-0.355 0.933,-1.241c15.438,-13.317 34.361,-32.217 34.361,-34.32c-0,-0.233 0.729,-1.316 5.319,-7.901c0.74,-1.062 2.213,-3.184 3.272,-4.717c1.06,-1.532 2.281,-3.148 2.714,-3.591c0.432,-0.443 1.169,-1.398 1.636,-2.122c0.93,-1.443 2.092,-2.886 3.888,-4.832c0.643,-0.697 2.204,-2.474 3.47,-3.951c2.766,-3.224 6.745,-5.997 8.291,-5.778c0.777,0.11 1.433,0.833 2.262,2.492c1.132,2.267 1.166,2.619 1.134,11.687c-0.02,5.68 -0.266,10.424 -0.627,12.087c-0.354,1.633 -0.423,2.909 -0.17,3.161c0.232,0.233 1.672,0.521 3.199,0.641c7.333,0.577 16.359,2.622 20.681,4.686c1.878,0.896 3.533,1.63 3.677,1.63c0.906,-0 9.18,6.753 15.408,12.575c4.183,3.911 6.081,5.039 11.86,7.051c0.9,0.313 2.057,0.743 2.572,0.956c1.125,0.467 6.664,2.095 9.583,2.818c1.157,0.287 3.365,0.837 4.908,1.223c1.543,0.387 5.119,1.073 7.947,1.527c2.828,0.453 5.943,1.165 6.922,1.582c5.266,2.243 5.883,4.301 2.372,7.912c-1.188,1.221 -2.337,2.221 -2.555,2.221c-0.218,-0 -1.121,-0.346 -2.006,-0.768c-3.048,-1.453 -4.297,0.61 -1.694,2.8c0.771,0.649 1.402,1.417 1.402,1.707c0,0.928 -2.361,5.758 -4.113,8.415c-2.827,4.286 -6.127,7.291 -8.917,8.12c-2.173,0.645 -3.104,0.652 -8.381,0.065c-5.168,-0.575 -9.667,-1.29 -14.821,-2.356c-1.196,-0.247 -1.675,-0.024 -3.208,1.498c-1.672,1.66 -5.437,6.771 -5.437,7.382c-0,0.148 -0.487,1.053 -1.081,2.012c-0.595,0.959 -1.35,2.901 -1.679,4.315c-0.652,2.802 -0.491,8.935 0.309,11.824c0.827,2.982 3.437,6.831 7.359,10.852c7.413,7.599 14.023,11.884 34.359,22.276c5.302,2.708 5.344,2.743 3.039,2.472c-1.286,-0.15 -3.389,-0.457 -4.675,-0.681c-1.285,-0.223 -4.125,-0.644 -6.311,-0.934c-4.247,-0.564 -5.341,-0.775 -13.322,-2.578c-5.641,-1.275 -7.748,-1.852 -15.447,-4.235c-7.939,-2.458 -8.413,-2.252 -6.799,2.946c0.541,1.743 1.215,4.01 1.499,5.039c0.284,1.028 0.996,2.922 1.582,4.207c1.884,4.128 5.361,11.192 5.961,12.109c3.903,5.97 5.897,8.84 7.5,10.797c4.636,5.657 20.921,21.173 28.097,26.769c0.746,0.583 1.253,1.162 1.126,1.289c-0.126,0.127 -1.894,-0.299 -3.928,-0.947c-2.034,-0.647 -4.96,-1.51 -6.502,-1.916c-1.543,-0.407 -3.226,-0.898 -3.74,-1.091c-1.14,-0.428 -4.058,-1.341 -10.518,-3.293c-2.7,-0.815 -5.54,-1.76 -6.311,-2.099c-0.771,-0.338 -2.875,-1.144 -4.675,-1.791c-4.992,-1.793 -10.432,-3.977 -13.694,-5.498c-1.619,-0.755 -3.049,-1.372 -3.179,-1.372c-0.369,-0 -10.984,-5.353 -12.811,-6.461c-0.9,-0.545 -2.307,-1.297 -3.128,-1.671c-0.82,-0.373 -4.163,-2.389 -7.429,-4.478c-3.631,-2.323 -6.319,-3.745 -6.92,-3.659c-1.373,0.197 -1.57,1.558 -1.634,11.296c-0.046,6.953 0.106,9.027 0.909,12.388c1.365,5.715 3.63,12.761 4.325,13.456c0.176,0.177 0.32,0.636 0.32,1.022c0,0.634 3.692,8.719 5.425,11.882c0.388,0.707 0.63,1.285 0.538,1.285c-0.092,0 -2.47,-2.155 -5.285,-4.789l-0,0Zm25.397,-170.305c0.571,-0.4 1.039,-1.015 1.039,-1.367c-0,-2.074 -6.439,-6.069 -13.09,-8.122c-6.004,-1.853 -6.9,-2.035 -10.321,-2.103c-3.39,-0.067 -3.472,-0.041 -3.608,1.121c-0.327,2.812 6.102,8.529 10.97,9.755c1.242,0.312 2.889,0.744 3.661,0.958c2.603,0.724 10.201,0.562 11.349,-0.242Zm-16.492,-24.347c-0.771,-0.087 -2.843,-0.394 -4.603,-0.682l-3.201,-0.523l0.333,-1.469c0.184,-0.807 0.428,-5.082 0.543,-9.498l0.21,-8.03l2.514,-1.94c3.133,-2.417 4.318,-2.367 5.561,0.236c0.69,1.445 0.943,3.266 1.113,8.015c0.225,6.277 -0.203,14.246 -0.759,14.12c-0.169,-0.039 -0.939,-0.142 -1.711,-0.229Z" style="fill-rule:nonzero;"/></g><g id="Zeichnung.svg"/><script xmlns=""/></svg>